<?xml version="1.0" standalone="no"?>
<!DOCTYPE svg PUBLIC "-//W3C//DTD SVG 20010904//EN"
 "http://www.w3.org/TR/2001/REC-SVG-20010904/DTD/svg10.dtd">
<svg version="1.0" xmlns="http://www.w3.org/2000/svg"
 width="128.000000pt" height="128.000000pt" viewBox="0 0 128.000000 128.000000"
 preserveAspectRatio="xMidYMid meet">

<g transform="translate(0.000000,128.000000) scale(0.100000,-0.100000)"
fill="#ffffff" stroke="none">
<path d="M486 1158 c-24 -37 -58 -180 -46 -192 14 -14 386 -14 400 0 12 12
-22 155 -46 192 -15 23 -20 24 -72 17 -32 -3 -68 -6 -82 -6 -14 0 -50 3 -82 6
-52 7 -57 6 -72 -17z m302 -60 c35 -90 34 -101 -13 -109 -143 -24 -158 -20
-61 16 47 18 48 19 42 54 -6 40 -45 81 -79 82 -21 0 -21 1 -2 9 11 5 36 8 55
7 33 -2 36 -6 58 -59z"/>
<path d="M241 820 c-78 -27 -145 -51 -148 -54 -3 -3 7 -10 23 -17 57 -21 173
-38 347 -50 255 -17 589 8 702 51 38 15 36 16 -141 75 l-141 46 -64 -17 c-84
-22 -260 -23 -352 0 -38 9 -71 16 -75 15 -4 0 -72 -22 -151 -49z m776 -17 c46
-15 83 -31 83 -34 0 -12 -137 -32 -367 -54 -36 -3 -63 -2 -63 3 0 5 33 13 73
16 75 8 202 32 218 42 6 3 -3 15 -18 27 -63 47 -61 47 74 0z"/>
<path d="M222 559 c-35 -67 -62 -123 -59 -125 2 -2 36 9 76 26 l72 29 19 -32
20 -32 -36 -36 c-33 -34 -35 -38 -18 -47 36 -19 266 -114 268 -110 6 7 27 90
24 92 -2 1 -24 15 -51 30 -76 44 -152 154 -188 274 -6 23 -18 42 -25 42 -7 0
-18 2 -26 5 -9 3 -34 -36 -76 -116z"/>
<path d="M904 662 c-6 -4 -16 -30 -23 -58 -15 -63 -35 -94 -89 -136 -88 -70
-156 -191 -169 -303 l-6 -50 80 85 c90 94 182 156 251 166 l44 7 -46 29 c-25
17 -46 34 -46 39 0 4 10 20 23 34 l22 26 84 -36 c46 -19 85 -34 87 -32 2 1
-32 55 -74 120 -64 97 -81 117 -102 117 -14 0 -30 -4 -36 -8z m110 -102 c30
-47 53 -86 51 -88 -2 -2 -31 9 -65 24 l-62 28 -19 -25 c-22 -29 -24 -20 -4 27
12 30 18 34 40 28 l25 -6 -15 42 c-15 42 -19 68 -11 59 3 -3 30 -43 60 -89z
m-117 -142 c43 -32 44 -33 21 -41 -100 -38 -128 -57 -207 -136 -79 -80 -82
-82 -61 -42 29 57 99 132 161 172 54 34 53 33 39 60 -15 27 -5 24 47 -13z"/>
<path d="M404 625 c-8 -19 32 -74 63 -86 52 -20 81 -12 108 31 32 51 55 51 84
-1 23 -40 25 -41 68 -36 52 6 103 47 103 84 l0 23 -210 0 c-176 0 -212 -2
-216 -15z"/>
</g>
</svg>
