<svg id="visual" viewBox="0 0 500 600" width="500" height="600" xmlns="http://www.w3.org/2000/svg" xmlns:xlink="http://www.w3.org/1999/xlink" version="1.1"><rect x="0" y="0" width="500" height="600" fill="#111827"></rect><g transform="translate(248.44253983091926 280.29441817046387)"><path d="M83.4 -92.9C118.3 -70 164.1 -53.5 171.7 -27.7C179.4 -1.8 149 33.3 128.3 78.7C107.6 124 96.6 179.4 67.1 194.5C37.7 209.6 -10 184.2 -33.3 150.2C-56.6 116.3 -55.4 73.8 -80 41.3C-104.7 8.7 -155.3 -13.8 -167 -43.8C-178.8 -73.7 -151.7 -111.2 -117.4 -134.1C-83.1 -157.1 -41.6 -165.5 -8.7 -155.2C24.2 -144.9 48.4 -115.7 83.4 -92.9" fill="#BB004B"></path></g></svg>