<svg id="visual" viewBox="0 0 900 600" width="900" height="600" xmlns="http://www.w3.org/2000/svg" xmlns:xlink="http://www.w3.org/1999/xlink" version="1.1"><rect x="0" y="0" width="900" height="600" fill="#111827"></rect><g transform="translate(450.88106508741697 275.5949236092438)"><path d="M87.8 -133.4C120.3 -133.3 157.6 -122.9 165.6 -99C173.6 -75 152.3 -37.5 136 -9.4C119.8 18.8 108.6 37.5 103.3 66.1C98 94.7 98.5 133.1 82.2 154.4C66 175.6 33 179.8 -1 181.6C-35 183.3 -70 182.6 -91.1 164.1C-112.1 145.6 -119.3 109.3 -134.5 79C-149.6 48.7 -172.8 24.3 -168.6 2.4C-164.4 -19.5 -132.9 -39 -110.5 -56.9C-88.2 -74.8 -75.1 -91.1 -58.2 -100.2C-41.3 -109.3 -20.7 -111.1 3.5 -117.2C27.7 -123.3 55.3 -133.5 87.8 -133.4" fill="#BB004B"></path></g></svg>