<svg id="visual" viewBox="0 0 9999 100" width="9999" height="100" xmlns="http://www.w3.org/2000/svg" xmlns:xlink="http://www.w3.org/1999/xlink" version="1.1"><rect x="0" y="0" width="9999" height="100" fill="#111827"></rect><path d="M0 96L435 83L869 61L1304 33L1739 31L2174 91L2608 65L3043 76L3478 48L3913 43L4347 91L4782 81L5217 98L5652 82L6086 87L6521 62L6956 47L7391 36L7825 93L8260 36L8695 36L9130 49L9564 31L9999 43L9999 0L9564 0L9130 0L8695 0L8260 0L7825 0L7391 0L6956 0L6521 0L6086 0L5652 0L5217 0L4782 0L4347 0L3913 0L3478 0L3043 0L2608 0L2174 0L1739 0L1304 0L869 0L435 0L0 0Z" fill="#f5730a"></path><path d="M0 49L435 40L869 60L1304 33L1739 43L2174 60L2608 23L3043 32L3478 79L3913 26L4347 24L4782 70L5217 37L5652 62L6086 74L6521 26L6956 45L7391 81L7825 56L8260 82L8695 24L9130 39L9564 67L9999 59L9999 0L9564 0L9130 0L8695 0L8260 0L7825 0L7391 0L6956 0L6521 0L6086 0L5652 0L5217 0L4782 0L4347 0L3913 0L3478 0L3043 0L2608 0L2174 0L1739 0L1304 0L869 0L435 0L0 0Z" fill="#df6009"></path><path d="M0 47L435 41L869 22L1304 68L1739 66L2174 32L2608 39L3043 52L3478 18L3913 68L4347 24L4782 55L5217 54L5652 26L6086 47L6521 65L6956 46L7391 27L7825 32L8260 18L8695 64L9130 59L9564 64L9999 17L9999 0L9564 0L9130 0L8695 0L8260 0L7825 0L7391 0L6956 0L6521 0L6086 0L5652 0L5217 0L4782 0L4347 0L3913 0L3478 0L3043 0L2608 0L2174 0L1739 0L1304 0L869 0L435 0L0 0Z" fill="#c94d08"></path><path d="M0 24L435 38L869 16L1304 12L1739 49L2174 16L2608 40L3043 25L3478 21L3913 18L4347 56L4782 17L5217 37L5652 55L6086 51L6521 24L6956 43L7391 31L7825 19L8260 51L8695 55L9130 42L9564 14L9999 29L9999 0L9564 0L9130 0L8695 0L8260 0L7825 0L7391 0L6956 0L6521 0L6086 0L5652 0L5217 0L4782 0L4347 0L3913 0L3478 0L3043 0L2608 0L2174 0L1739 0L1304 0L869 0L435 0L0 0Z" fill="#b33b06"></path><path d="M0 31L435 39L869 5L1304 6L1739 13L2174 15L2608 35L3043 29L3478 22L3913 13L4347 16L4782 12L5217 18L5652 18L6086 12L6521 28L6956 23L7391 6L7825 11L8260 29L8695 26L9130 24L9564 40L9999 26L9999 0L9564 0L9130 0L8695 0L8260 0L7825 0L7391 0L6956 0L6521 0L6086 0L5652 0L5217 0L4782 0L4347 0L3913 0L3478 0L3043 0L2608 0L2174 0L1739 0L1304 0L869 0L435 0L0 0Z" fill="#9d2804"></path><path d="M0 8L435 10L869 24L1304 26L1739 19L2174 17L2608 3L3043 20L3478 5L3913 4L4347 15L4782 14L5217 1L5652 3L6086 1L6521 19L6956 8L7391 12L7825 5L8260 13L8695 7L9130 6L9564 3L9999 1L9999 0L9564 0L9130 0L8695 0L8260 0L7825 0L7391 0L6956 0L6521 0L6086 0L5652 0L5217 0L4782 0L4347 0L3913 0L3478 0L3043 0L2608 0L2174 0L1739 0L1304 0L869 0L435 0L0 0Z" fill="#871400"></path></svg>